{
    "asset" : {
        "generator" : "Khronos glTF Blender I/O v1.5.17",
        "version" : "2.0"
    },
    "scene" : 0,
    "scenes" : [
        {
            "name" : "Scene",
            "nodes" : [
                0,
                1,
                2
            ]
        }
    ],
    "nodes" : [
        {
            "name" : "Light",
            "rotation" : [
                0.16907575726509094,
                0.7558803558349609,
                -0.27217137813568115,
                0.570947527885437
            ],
            "translation" : [
                4.076245307922363,
                5.903861999511719,
                -1.0054539442062378
            ]
        },
        {
            "name" : "Camera",
            "rotation" : [
                0.483536034822464,
                0.33687159419059753,
                -0.20870360732078552,
                0.7804827094078064
            ],
            "translation" : [
                7.358891487121582,
                4.958309173583984,
                6.925790786743164
            ]
        },
        {
            "mesh" : 0,
            "name" : "result",
            "rotation" : [
                0.7071068286895752,
                0,
                0,
                0.7071067094802856
            ]
        }
    ],
    "materials" : [
        {
            "doubleSided" : true,
            "name" : "Default_OBJ",
            "pbrMetallicRoughness" : {
                "baseColorFactor" : [
                    0.7620156407356262,
                    0.7676680684089661,
                    0.9062042236328125,
                    1
                ],
                "metallicFactor" : 0.25000008940696716,
                "roughnessFactor" : 0
            }
        }
    ],
    "meshes" : [
        {
            "name" : "result",
            "primitives" : [
                {
                    "attributes" : {
                        "POSITION" : 0,
                        "NORMAL" : 1
                    },
                    "indices" : 2,
                    "material" : 0
                }
            ]
        }
    ],
    "accessors" : [
        {
            "bufferView" : 0,
            "componentType" : 5126,
            "count" : 49400,
            "max" : [
                0.31660500168800354,
                0.17848999798297882,
                0.9328920245170593
            ],
            "min" : [
                -0.316540002822876,
                -0.1970289945602417,
                -0.8987950086593628
            ],
            "type" : "VEC3"
        },
        {
            "bufferView" : 1,
            "componentType" : 5126,
            "count" : 49400,
            "type" : "VEC3"
        },
        {
            "bufferView" : 2,
            "componentType" : 5123,
            "count" : 296352,
            "type" : "SCALAR"
        }
    ],
    "bufferViews" : [
        {
            "buffer" : 0,
            "byteLength" : 592800,
            "byteOffset" : 0
        },
        {
            "buffer" : 0,
            "byteLength" : 592800,
            "byteOffset" : 592800
        },
        {
            "buffer" : 0,
            "byteLength" : 592704,
            "byteOffset" : 1185600
        }
    ],
    "buffers" : [
        {
            "byteLength" : 1778304,
            "uri" : "data:application/octet-stream;base64,"
        }
    ]
}
