<svg xmlns="http://www.w3.org/2000/svg" version="1.1" xmlns:xlink="http://www.w3.org/1999/xlink" xmlns:svgjs="http://svgjs.com/svgjs" width="2000" height="2000" preserveAspectRatio="none" viewBox="0 0 2000 2000"><g mask="url(&quot;#SvgjsMask1073&quot;)" fill="none"><rect width="2000" height="2000" x="0" y="0" fill="rgba(255, 255, 255, 1)"></rect><path d="M302.07 1007.43L448.44 1091.93L448.44 1260.93L302.07 1345.43L155.71 1260.93L155.71 1091.93zM594.8 500.43L741.16 584.93L741.16 753.93L594.8 838.43L448.44 753.93L448.44 584.93zM741.16 753.93L887.52 838.43L887.52 1007.43L741.16 1091.93L594.8 1007.43L594.8 838.43zM594.8 1007.43L741.16 1091.93L741.16 1260.93L594.8 1345.43L448.44 1260.93L448.44 1091.93zM594.8 2021.43L741.16 2105.93L741.16 2274.93L594.8 2359.43L448.44 2274.93L448.44 2105.93zM887.52 -6.57L1033.89 77.93L1033.89 246.93L887.52 331.43L741.16 246.93L741.16 77.93zM887.52 1514.43L1033.89 1598.93L1033.89 1767.93L887.52 1852.43L741.16 1767.93L741.16 1598.93zM887.52 2021.43L1033.89 2105.93L1033.89 2274.93L887.52 2359.43L741.16 2274.93L741.16 2105.93zM1180.25 -6.57L1326.61 77.93L1326.61 246.93L1180.25 331.43L1033.89 246.93L1033.89 77.93zM1326.61 246.93L1472.97 331.43L1472.97 500.43L1326.61 584.93L1180.25 500.43L1180.25 331.43zM1326.61 1260.93L1472.97 1345.43L1472.97 1514.43L1326.61 1598.93L1180.25 1514.43L1180.25 1345.43zM1472.97 500.43L1619.34 584.93L1619.34 753.93L1472.97 838.43L1326.61 753.93L1326.61 584.93zM1619.34 753.93L1765.7 838.43L1765.7 1007.43L1619.34 1091.93L1472.97 1007.43L1472.97 838.43zM1472.97 2021.43L1619.34 2105.93L1619.34 2274.93L1472.97 2359.43L1326.61 2274.93L1326.61 2105.93zM1912.06 246.93L2058.42 331.43L2058.42 500.43L1912.06 584.93L1765.7 500.43L1765.7 331.43zM1765.7 500.43L1912.06 584.93L1912.06 753.93L1765.7 838.43L1619.34 753.93L1619.34 584.93zM1912.06 753.93L2058.42 838.43L2058.42 1007.43L1912.06 1091.93L1765.7 1007.43L1765.7 838.43zM1912.06 1260.93L2058.42 1345.43L2058.42 1514.43L1912.06 1598.93L1765.7 1514.43L1765.7 1345.43z" stroke="rgba(235, 236, 238, 1)" stroke-width="2"></path><path d="M285.17 1007.43 a16.9 16.9 0 1 0 33.8 0 a16.9 16.9 0 1 0 -33.8 0zM431.54 1091.93 a16.9 16.9 0 1 0 33.8 0 a16.9 16.9 0 1 0 -33.8 0zM431.54 1260.93 a16.9 16.9 0 1 0 33.8 0 a16.9 16.9 0 1 0 -33.8 0zM285.17 1345.43 a16.9 16.9 0 1 0 33.8 0 a16.9 16.9 0 1 0 -33.8 0zM138.81 1260.93 a16.9 16.9 0 1 0 33.8 0 a16.9 16.9 0 1 0 -33.8 0zM138.81 1091.93 a16.9 16.9 0 1 0 33.8 0 a16.9 16.9 0 1 0 -33.8 0zM577.9 500.43 a16.9 16.9 0 1 0 33.8 0 a16.9 16.9 0 1 0 -33.8 0zM724.26 584.93 a16.9 16.9 0 1 0 33.8 0 a16.9 16.9 0 1 0 -33.8 0zM724.26 753.93 a16.9 16.9 0 1 0 33.8 0 a16.9 16.9 0 1 0 -33.8 0zM577.9 838.43 a16.9 16.9 0 1 0 33.8 0 a16.9 16.9 0 1 0 -33.8 0zM431.54 753.93 a16.9 16.9 0 1 0 33.8 0 a16.9 16.9 0 1 0 -33.8 0zM431.54 584.93 a16.9 16.9 0 1 0 33.8 0 a16.9 16.9 0 1 0 -33.8 0zM870.62 838.43 a16.9 16.9 0 1 0 33.8 0 a16.9 16.9 0 1 0 -33.8 0zM870.62 1007.43 a16.9 16.9 0 1 0 33.8 0 a16.9 16.9 0 1 0 -33.8 0zM724.26 1091.93 a16.9 16.9 0 1 0 33.8 0 a16.9 16.9 0 1 0 -33.8 0zM577.9 1007.43 a16.9 16.9 0 1 0 33.8 0 a16.9 16.9 0 1 0 -33.8 0zM724.26 1260.93 a16.9 16.9 0 1 0 33.8 0 a16.9 16.9 0 1 0 -33.8 0zM577.9 1345.43 a16.9 16.9 0 1 0 33.8 0 a16.9 16.9 0 1 0 -33.8 0zM577.9 2021.43 a16.9 16.9 0 1 0 33.8 0 a16.9 16.9 0 1 0 -33.8 0zM724.26 2105.93 a16.9 16.9 0 1 0 33.8 0 a16.9 16.9 0 1 0 -33.8 0zM724.26 2274.93 a16.9 16.9 0 1 0 33.8 0 a16.9 16.9 0 1 0 -33.8 0zM577.9 2359.43 a16.9 16.9 0 1 0 33.8 0 a16.9 16.9 0 1 0 -33.8 0zM431.54 2274.93 a16.9 16.9 0 1 0 33.8 0 a16.9 16.9 0 1 0 -33.8 0zM431.54 2105.93 a16.9 16.9 0 1 0 33.8 0 a16.9 16.9 0 1 0 -33.8 0zM870.62 -6.57 a16.9 16.9 0 1 0 33.8 0 a16.9 16.9 0 1 0 -33.8 0zM1016.99 77.93 a16.9 16.9 0 1 0 33.8 0 a16.9 16.9 0 1 0 -33.8 0zM1016.99 246.93 a16.9 16.9 0 1 0 33.8 0 a16.9 16.9 0 1 0 -33.8 0zM870.62 331.43 a16.9 16.9 0 1 0 33.8 0 a16.9 16.9 0 1 0 -33.8 0zM724.26 246.93 a16.9 16.9 0 1 0 33.8 0 a16.9 16.9 0 1 0 -33.8 0zM724.26 77.93 a16.9 16.9 0 1 0 33.8 0 a16.9 16.9 0 1 0 -33.8 0zM870.62 1514.43 a16.9 16.9 0 1 0 33.8 0 a16.9 16.9 0 1 0 -33.8 0zM1016.99 1598.93 a16.9 16.9 0 1 0 33.8 0 a16.9 16.9 0 1 0 -33.8 0zM1016.99 1767.93 a16.9 16.9 0 1 0 33.8 0 a16.9 16.9 0 1 0 -33.8 0zM870.62 1852.43 a16.9 16.9 0 1 0 33.8 0 a16.9 16.9 0 1 0 -33.8 0zM724.26 1767.93 a16.9 16.9 0 1 0 33.8 0 a16.9 16.9 0 1 0 -33.8 0zM724.26 1598.93 a16.9 16.9 0 1 0 33.8 0 a16.9 16.9 0 1 0 -33.8 0zM870.62 2021.43 a16.9 16.9 0 1 0 33.8 0 a16.9 16.9 0 1 0 -33.8 0zM1016.99 2105.93 a16.9 16.9 0 1 0 33.8 0 a16.9 16.9 0 1 0 -33.8 0zM1016.99 2274.93 a16.9 16.9 0 1 0 33.8 0 a16.9 16.9 0 1 0 -33.8 0zM870.62 2359.43 a16.9 16.9 0 1 0 33.8 0 a16.9 16.9 0 1 0 -33.8 0zM1163.35 -6.57 a16.9 16.9 0 1 0 33.8 0 a16.9 16.9 0 1 0 -33.8 0zM1309.71 77.93 a16.9 16.9 0 1 0 33.8 0 a16.9 16.9 0 1 0 -33.8 0zM1309.71 246.93 a16.9 16.9 0 1 0 33.8 0 a16.9 16.9 0 1 0 -33.8 0zM1163.35 331.43 a16.9 16.9 0 1 0 33.8 0 a16.9 16.9 0 1 0 -33.8 0zM1456.07 331.43 a16.9 16.9 0 1 0 33.8 0 a16.9 16.9 0 1 0 -33.8 0zM1456.07 500.43 a16.9 16.9 0 1 0 33.8 0 a16.9 16.9 0 1 0 -33.8 0zM1309.71 584.93 a16.9 16.9 0 1 0 33.8 0 a16.9 16.9 0 1 0 -33.8 0zM1163.35 500.43 a16.9 16.9 0 1 0 33.8 0 a16.9 16.9 0 1 0 -33.8 0zM1309.71 1260.93 a16.9 16.9 0 1 0 33.8 0 a16.9 16.9 0 1 0 -33.8 0zM1456.07 1345.43 a16.9 16.9 0 1 0 33.8 0 a16.9 16.9 0 1 0 -33.8 0zM1456.07 1514.43 a16.9 16.9 0 1 0 33.8 0 a16.9 16.9 0 1 0 -33.8 0zM1309.71 1598.93 a16.9 16.9 0 1 0 33.8 0 a16.9 16.9 0 1 0 -33.8 0zM1163.35 1514.43 a16.9 16.9 0 1 0 33.8 0 a16.9 16.9 0 1 0 -33.8 0zM1163.35 1345.43 a16.9 16.9 0 1 0 33.8 0 a16.9 16.9 0 1 0 -33.8 0zM1602.44 584.93 a16.9 16.9 0 1 0 33.8 0 a16.9 16.9 0 1 0 -33.8 0zM1602.44 753.93 a16.9 16.9 0 1 0 33.8 0 a16.9 16.9 0 1 0 -33.8 0zM1456.07 838.43 a16.9 16.9 0 1 0 33.8 0 a16.9 16.9 0 1 0 -33.8 0zM1309.71 753.93 a16.9 16.9 0 1 0 33.8 0 a16.9 16.9 0 1 0 -33.8 0zM1748.8 838.43 a16.9 16.9 0 1 0 33.8 0 a16.9 16.9 0 1 0 -33.8 0zM1748.8 1007.43 a16.9 16.9 0 1 0 33.8 0 a16.9 16.9 0 1 0 -33.8 0zM1602.44 1091.93 a16.9 16.9 0 1 0 33.8 0 a16.9 16.9 0 1 0 -33.8 0zM1456.07 1007.43 a16.9 16.9 0 1 0 33.8 0 a16.9 16.9 0 1 0 -33.8 0zM1456.07 2021.43 a16.9 16.9 0 1 0 33.8 0 a16.9 16.9 0 1 0 -33.8 0zM1602.44 2105.93 a16.9 16.9 0 1 0 33.8 0 a16.9 16.9 0 1 0 -33.8 0zM1602.44 2274.93 a16.9 16.9 0 1 0 33.8 0 a16.9 16.9 0 1 0 -33.8 0zM1456.07 2359.43 a16.9 16.9 0 1 0 33.8 0 a16.9 16.9 0 1 0 -33.8 0zM1309.71 2274.93 a16.9 16.9 0 1 0 33.8 0 a16.9 16.9 0 1 0 -33.8 0zM1309.71 2105.93 a16.9 16.9 0 1 0 33.8 0 a16.9 16.9 0 1 0 -33.8 0zM1895.16 246.93 a16.9 16.9 0 1 0 33.8 0 a16.9 16.9 0 1 0 -33.8 0zM2041.52 331.43 a16.9 16.9 0 1 0 33.8 0 a16.9 16.9 0 1 0 -33.8 0zM2041.52 500.43 a16.9 16.9 0 1 0 33.8 0 a16.9 16.9 0 1 0 -33.8 0zM1895.16 584.93 a16.9 16.9 0 1 0 33.8 0 a16.9 16.9 0 1 0 -33.8 0zM1748.8 500.43 a16.9 16.9 0 1 0 33.8 0 a16.9 16.9 0 1 0 -33.8 0zM1748.8 331.43 a16.9 16.9 0 1 0 33.8 0 a16.9 16.9 0 1 0 -33.8 0zM1895.16 753.93 a16.9 16.9 0 1 0 33.8 0 a16.9 16.9 0 1 0 -33.8 0zM2041.52 838.43 a16.9 16.9 0 1 0 33.8 0 a16.9 16.9 0 1 0 -33.8 0zM2041.52 1007.43 a16.9 16.9 0 1 0 33.8 0 a16.9 16.9 0 1 0 -33.8 0zM1895.16 1091.93 a16.9 16.9 0 1 0 33.8 0 a16.9 16.9 0 1 0 -33.8 0zM1895.16 1260.93 a16.9 16.9 0 1 0 33.8 0 a16.9 16.9 0 1 0 -33.8 0zM2041.52 1345.43 a16.9 16.9 0 1 0 33.8 0 a16.9 16.9 0 1 0 -33.8 0zM2041.52 1514.43 a16.9 16.9 0 1 0 33.8 0 a16.9 16.9 0 1 0 -33.8 0zM1895.16 1598.93 a16.9 16.9 0 1 0 33.8 0 a16.9 16.9 0 1 0 -33.8 0zM1748.8 1514.43 a16.9 16.9 0 1 0 33.8 0 a16.9 16.9 0 1 0 -33.8 0zM1748.8 1345.43 a16.9 16.9 0 1 0 33.8 0 a16.9 16.9 0 1 0 -33.8 0z" fill="rgba(235, 236, 238, 1)"></path><path d="M159.85 -133.27L308.81 -47.27L308.81 124.73L159.85 210.73L10.89 124.73L10.89 -47.27zM457.77 -133.27L606.73 -47.27L606.73 124.73L457.77 210.73L308.81 124.73L308.81 -47.27zM606.73 124.73L755.69 210.73L755.69 382.73L606.73 468.73L457.77 382.73L457.77 210.73zM457.77 382.73L606.73 468.73L606.73 640.73L457.77 726.73L308.81 640.73L308.81 468.73zM606.73 1156.73L755.69 1242.73L755.69 1414.73L606.73 1500.73L457.77 1414.73L457.77 1242.73zM457.77 1414.73L606.73 1500.73L606.73 1672.73L457.77 1758.73L308.81 1672.73L308.81 1500.73zM904.65 124.73L1053.61 210.73L1053.61 382.73L904.65 468.73L755.69 382.73L755.69 210.73zM755.69 382.73L904.65 468.73L904.65 640.73L755.69 726.73L606.73 640.73L606.73 468.73zM755.69 898.73L904.65 984.73L904.65 1156.73L755.69 1242.73L606.73 1156.73L606.73 984.73zM1053.61 898.73L1202.57 984.73L1202.57 1156.73L1053.61 1242.73L904.65 1156.73L904.65 984.73zM1202.57 1156.73L1351.53 1242.73L1351.53 1414.73L1202.57 1500.73L1053.61 1414.73L1053.61 1242.73zM1053.61 1414.73L1202.57 1500.73L1202.57 1672.73L1053.61 1758.73L904.65 1672.73L904.65 1500.73zM1053.61 1930.73L1202.57 2016.73L1202.57 2188.73L1053.61 2274.73L904.65 2188.73L904.65 2016.73zM1500.5 1672.73L1649.46 1758.73L1649.46 1930.73L1500.5 2016.73L1351.53 1930.73L1351.53 1758.73zM1351.53 1930.73L1500.5 2016.73L1500.5 2188.73L1351.53 2274.73L1202.57 2188.73L1202.57 2016.73zM1649.46 -133.27L1798.42 -47.27L1798.42 124.73L1649.46 210.73L1500.5 124.73L1500.5 -47.27zM1649.46 382.73L1798.42 468.73L1798.42 640.73L1649.46 726.73L1500.5 640.73L1500.5 468.73zM1649.46 898.73L1798.42 984.73L1798.42 1156.73L1649.46 1242.73L1500.5 1156.73L1500.5 984.73zM1798.42 1156.73L1947.38 1242.73L1947.38 1414.73L1798.42 1500.73L1649.46 1414.73L1649.46 1242.73zM1649.46 1930.73L1798.42 2016.73L1798.42 2188.73L1649.46 2274.73L1500.5 2188.73L1500.5 2016.73zM2096.34 124.73L2245.3 210.73L2245.3 382.73L2096.34 468.73L1947.38 382.73L1947.38 210.73zM1947.38 1414.73L2096.34 1500.73L2096.34 1672.73L1947.38 1758.73L1798.42 1672.73L1798.42 1500.73zM1947.38 1930.73L2096.34 2016.73L2096.34 2188.73L1947.38 2274.73L1798.42 2188.73L1798.42 2016.73z" stroke="rgba(153, 157, 161, 0.93)" stroke-width="2"></path></g><defs><mask id="SvgjsMask1073"><rect width="2000" height="2000" fill="#ffffff"></rect></mask></defs></svg>