<svg xmlns="http://www.w3.org/2000/svg" version="1.1" xmlns:xlink="http://www.w3.org/1999/xlink" xmlns:svgjs="http://svgjs.com/svgjs" width="2000" height="2000" preserveAspectRatio="none" viewBox="0 0 2000 2000"><g mask="url(&quot;#SvgjsMask1024&quot;)" fill="none"><rect width="2000" height="2000" x="0" y="0" fill="url(#SvgjsLinearGradient1025)"></rect><path d="M2000 0L1810.66 0L2000 436.88z" fill="rgba(255, 255, 255, .1)"></path><path d="M1810.66 0L2000 436.88L2000 484.27L1792.8500000000001 0z" fill="rgba(255, 255, 255, .075)"></path><path d="M1792.85 0L2000 484.27L2000 667.3L1332.03 0z" fill="rgba(255, 255, 255, .05)"></path><path d="M1332.03 0L2000 667.3L2000 767.27L532.97 0z" fill="rgba(255, 255, 255, .025)"></path><path d="M0 2000L257.91 2000L0 1060.6100000000001z" fill="rgba(0, 0, 0, .1)"></path><path d="M0 1060.6100000000001L257.91 2000L644.8900000000001 2000L0 774.8500000000001z" fill="rgba(0, 0, 0, .075)"></path><path d="M0 774.8499999999999L644.8900000000001 2000L893.6400000000001 2000L0 422.1199999999999z" fill="rgba(0, 0, 0, .05)"></path><path d="M0 422.1199999999999L893.6400000000001 2000L1552.43 2000L0 295.4499999999999z" fill="rgba(0, 0, 0, .025)"></path></g><defs><mask id="SvgjsMask1024"><rect width="2000" height="2000" fill="#ffffff"></rect></mask><linearGradient x1="0%" y1="50%" x2="100%" y2="50%" gradientUnits="userSpaceOnUse" id="SvgjsLinearGradient1025"><stop stop-color="#0e2a47" offset="0"></stop><stop stop-color="rgba(233, 236, 239, 1)" offset="1"></stop><stop stop-color="rgba(233, 236, 239, 1)" offset="1"></stop><stop stop-color="rgba(233, 236, 239, 1)" offset="1"></stop><stop stop-color="rgba(233, 236, 239, 1)" offset="1"></stop></linearGradient></defs></svg>