<svg xmlns="http://www.w3.org/2000/svg" version="1.1" xmlns:xlink="http://www.w3.org/1999/xlink" xmlns:svgjs="http://svgjs.com/svgjs" width="1440" height="2000" preserveAspectRatio="none" viewBox="0 0 1440 2000"><g mask="url(&quot;#SvgjsMask1008&quot;)" fill="none"><rect width="1440" height="2000" x="0" y="0" fill="url(#SvgjsLinearGradient1009)"></rect><path d="M1440 0L834.37 0L1440 614.12z" fill="rgba(255, 255, 255, .1)"></path><path d="M834.37 0L1440 614.12L1440 988.56L385.05 0z" fill="rgba(255, 255, 255, .075)"></path><path d="M385.04999999999995 0L1440 988.56L1440 1416.62L167.73999999999995 0z" fill="rgba(255, 255, 255, .05)"></path><path d="M167.74 0L1440 1416.62L1440 1714.9599999999998L111.04 0z" fill="rgba(255, 255, 255, .025)"></path><path d="M0 2000L627.08 2000L0 1457.2z" fill="rgba(0, 0, 0, .1)"></path><path d="M0 1457.2L627.08 2000L662.97 2000L0 1241.3500000000001z" fill="rgba(0, 0, 0, .075)"></path><path d="M0 1241.35L662.97 2000L845.89 2000L0 1058.3799999999999z" fill="rgba(0, 0, 0, .05)"></path><path d="M0 1058.38L845.89 2000L1106.13 2000L0 431.3900000000001z" fill="rgba(0, 0, 0, .025)"></path></g><defs><mask id="SvgjsMask1008"><rect width="1440" height="2000" fill="#ffffff"></rect></mask><linearGradient x1="0%" y1="50%" x2="100%" y2="50%" gradientUnits="userSpaceOnUse" id="SvgjsLinearGradient1009"><stop stop-color="#0e2a47" offset="0"></stop><stop stop-color="rgba(233, 236, 239, 1)" offset="1"></stop><stop stop-color="rgba(233, 236, 239, 1)" offset="1"></stop><stop stop-color="rgba(233, 236, 239, 1)" offset="1"></stop><stop stop-color="rgba(233, 236, 239, 1)" offset="1"></stop></linearGradient></defs></svg>