<svg xmlns="http://www.w3.org/2000/svg" version="1.1" xmlns:xlink="http://www.w3.org/1999/xlink" xmlns:svgjs="http://svgjs.com/svgjs" width="1440" height="2000" preserveAspectRatio="none" viewBox="0 0 1440 2000"><g mask="url(&quot;#SvgjsMask1024&quot;)" fill="none"><rect width="1440" height="2000" x="0" y="0" fill="rgba(222, 226, 230, 1)"></rect><path d="M1440 0L1159.75 0L1440 643.82z" fill="rgba(255, 255, 255, .1)"></path><path d="M1159.75 0L1440 643.82L1440 900.2900000000001L701.12 0z" fill="rgba(255, 255, 255, .075)"></path><path d="M701.12 0L1440 900.2900000000001L1440 1490.18L650.45 0z" fill="rgba(255, 255, 255, .05)"></path><path d="M650.45 0L1440 1490.18L1440 1833.0500000000002L333.20000000000005 0z" fill="rgba(255, 255, 255, .025)"></path><path d="M0 2000L241.69 2000L0 1517.45z" fill="rgba(0, 0, 0, .1)"></path><path d="M0 1517.45L241.69 2000L483.88 2000L0 1451.5700000000002z" fill="rgba(0, 0, 0, .075)"></path><path d="M0 1451.57L483.88 2000L660.78 2000L0 1270.44z" fill="rgba(0, 0, 0, .05)"></path><path d="M0 1270.44L660.78 2000L1141.5 2000L0 616.97z" fill="rgba(0, 0, 0, .025)"></path></g><defs><mask id="SvgjsMask1024"><rect width="1440" height="2000" fill="#ffffff"></rect></mask></defs></svg>